# xmcd
#
# Track frame offsets:
#	150
#	10621
#	31096
#	46626
#	63606
#	79659
#	93774
#	107531
#	131509
#	149660
#	163466
#	180269
#	193877
#	211323
#	229133
#	242725
#	255001
#	273058
#	293163
#	309702
#	330633
#
# Disc length: 4699 seconds
#
# Revision: 1
# Processed by: cddbd v1.4PL0 Copyright (c) Steve Scherf et al.
# Submitted via: EasyCDDAExtractor 5.0.6
#
DISCID=18125915
DTITLE=Enigma - THE BEST 2000
DYEAR=1900
DGENRE=
TTITLE0=intro-the voice of enigma
TTITLE1=puch the limits
TTITLE2=principles of lust (radio edit)
TTITLE3=smell of desire 00
TTITLE4=age of loneliness (clubby radio edit)
TTITLE5=endless quest 00
TTITLE6=sadeness part I (meditation mix)
TTITLE7=silence must be heard 00
TTITLE8=mea culpa part II (orthodox ver)
TTITLE9=return to innocence (shorm radio edit)
TTITLE10=beyond the invisible (short radio edit)
TTITLE11=light of your smile
TTITLE12=modern crusaders
TTITLE13=silent warrior
TTITLE14=knocking on forbidden doors
TTITLE15=back to the rivers of belief
TTITLE16=the screen behind the mirror
TTITLE17=T.N.T. for the brain
TTITLE18=the roundabout
TTITLE19=the eyes of truth (radio edit)
TTITLE20=out from the deep
EXTD=
EXTT0=
EXTT1=
EXTT2=
EXTT3=
EXTT4=
EXTT5=
EXTT6=
EXTT7=
EXTT8=
EXTT9=
EXTT10=
EXTT11=
EXTT12=
EXTT13=
EXTT14=
EXTT15=
EXTT16=
EXTT17=
EXTT18=
EXTT19=
EXTT20=
PLAYORDER=
